HIERARCHY
ROOT Hips
{
	OFFSET 0.000000 0.000000 0.000000
	CHANNELS 6 Xposition Yposition Zposition Zrotation Yrotation Xrotation 
	JOINT LowerBack
	{
		OFFSET 0.000000 0.000000 0.000000
		CHANNELS 3 Zrotation Yrotation Xrotation
		JOINT Spine
		{
			OFFSET 0.028270 2.035590 -0.193380
			CHANNELS 3 Zrotation Yrotation Xrotation
			JOINT Spine1
			{
				OFFSET 0.056720 2.048850 -0.042750
				CHANNELS 3 Zrotation Yrotation Xrotation
				JOINT Neck
				{
					OFFSET 0.000000 0.000000 0.000000
					CHANNELS 3 Zrotation Yrotation Xrotation
					JOINT Neck1
					{
						OFFSET -0.054170 1.746240 0.172020
						CHANNELS 3 Zrotation Yrotation Xrotation
						JOINT Head
						{
							OFFSET 0.104070 1.761360 -0.123970
							CHANNELS 3 Zrotation Yrotation Xrotation
							End Site
							{
								OFFSET 0.000000 0.000000 0.000000
							}
						}
					}
				}
				JOINT LeftShoulder
				{
					OFFSET 0.000000 0.000000 0.000000
					CHANNELS 3 Zrotation Yrotation Xrotation
					JOINT LeftArm
					{
						OFFSET 3.362410 1.200890 -0.311210
						CHANNELS 3 Zrotation Yrotation Xrotation
						JOINT LeftForeArm
						{
							OFFSET 4.983000 -0.000000 -0.000000
							CHANNELS 3 Zrotation Yrotation Xrotation
							JOINT LeftHand
							{
								OFFSET 3.483560 -0.000000 -0.000000
								CHANNELS 3 Zrotation Yrotation Xrotation
								JOINT LeftFingerBase
								{
									OFFSET 0.000000 0.000000 0.000000
									CHANNELS 3 Zrotation Yrotation Xrotation
									JOINT LeftHandIndex1
									{
										OFFSET 0.715260 -0.000000 -0.000000
										CHANNELS 3 Zrotation Yrotation Xrotation
										End Site
										{
											OFFSET 0.000000 0.000000 0.000000
										}
									}
								}
								JOINT LThumb
								{
									OFFSET 0.000000 0.000000 0.000000
									CHANNELS 3 Zrotation Yrotation Xrotation
									End Site
									{
										OFFSET 0.000000 0.000000 0.000000
									}
								}
							}
						}
					}
				}
				JOINT RightShoulder
				{
					OFFSET 0.000000 0.000000 0.000000
					CHANNELS 3 Zrotation Yrotation Xrotation
					JOINT RightArm
					{
						OFFSET -3.136600 1.374050 -0.404650
						CHANNELS 3 Zrotation Yrotation Xrotation
						JOINT RightForeArm
						{
							OFFSET -5.241900 -0.000000 -0.000000
							CHANNELS 3 Zrotation Yrotation Xrotation
							JOINT RightHand
							{
								OFFSET -3.444170 -0.000000 -0.000000
								CHANNELS 3 Zrotation Yrotation Xrotation
								JOINT RightFingerBase
								{
									OFFSET 0.000000 0.000000 0.000000
									CHANNELS 3 Zrotation Yrotation Xrotation
									JOINT RightHandIndex1
									{
										OFFSET -0.622530 -0.000000 -0.000000
										CHANNELS 3 Zrotation Yrotation Xrotation
										End Site
										{
											OFFSET 0.000000 0.000000 0.000000
										}
									}
								}
								JOINT RThumb
								{
									OFFSET 0.000000 0.000000 0.000000
									CHANNELS 3 Zrotation Yrotation Xrotation
									End Site
									{
										OFFSET 0.000000 0.000000 0.000000
									}
								}
							}
						}
					}
				}
			}
		}
	}
}
}
MOTION
Frames: 9
Frame Time: 0.008333
-3.364122 16.817179 -2.063933 8.219361 72.299144 17.609419 -7.034105 2.414345 -3.230473 -1.822514 2.751488 -3.829377 -4.329506 2.590216 -0.935328 4.950734 -2.022898 -7.021551 -1.392807 -0.121937 0.193674 0.000000 0.000000 0.000000 -13.645199 20.276544 3.323571 -79.715152 34.339985 6.225821 -3.473156 -9.470330 -0.005481 -1.805728 9.073975 -0.146133 0.000090 -0.142828 -0.000000 0.000000 0.000000 0.000000 0.000000 0.000000 0.000000 0.633814 4.726800 -2.598713 41.700450 53.046294 7.726497 0.025750 76.079419 -0.070703 -5.064965 10.397264 -0.482741 -0.081412 -0.644472 -0.000000 0.000000 0.000000 0.000000 0.000000 0.000000 0.000000 
-3.237722 16.782340 -2.069267 9.301825 71.592915 18.478380 -7.510470 2.309849 -3.098223 -1.930646 2.683563 -3.841730 -4.387124 2.528025 -1.031018 5.167742 -1.832528 -6.905238 -1.453025 -0.127849 0.220895 0.000000 0.000000 0.000000 -13.426942 19.701859 3.354363 -79.665821 33.846471 7.550296 -3.430066 -10.162326 -0.004627 -1.698499 8.697388 -0.132022 0.002906 -0.137721 -0.000000 0.000000 0.000000 0.000000 0.000000 0.000000 0.000000 1.053728 4.981518 -2.445880 43.393790 52.559268 8.872124 0.067996 76.094940 -0.069174 -5.069422 10.475089 -0.487233 -0.073768 -0.643706 -0.000000 0.000000 0.000000 0.000000 0.000000 0.000000 0.000000 
-3.116224 16.743762 -2.074111 10.337756 70.888759 19.274896 -7.985604 2.195369 -2.912661 -2.038056 2.607239 -3.848045 -4.443640 2.458556 -1.150168 5.364896 -1.631906 -6.777010 -1.516998 -0.134130 0.250301 0.000000 0.000000 0.000000 -13.182834 19.019284 3.394301 -79.604143 33.336582 8.861219 -3.391732 -10.957553 -0.003863 -1.588460 8.221721 -0.116912 0.005422 -0.132192 -0.000000 0.000000 0.000000 0.000000 0.000000 0.000000 0.000000 1.470346 5.250002 -2.284471 45.151091 52.015718 10.055440 0.105643 76.018332 -0.067313 -5.054212 10.546328 -0.489424 -0.066016 -0.642131 -0.000000 0.000000 0.000000 0.000000 0.000000 0.000000 0.000000 
-3.000028 16.701424 -2.078713 11.313607 70.190452 19.989141 -8.450957 2.072551 -2.673004 -2.143357 2.523208 -3.848012 -4.500425 2.382241 -1.294060 5.539571 -1.425057 -6.636803 -1.585247 -0.140820 0.281871 0.000000 0.000000 0.000000 -12.921687 18.226523 3.441073 -79.509158 32.819979 10.215449 -3.356263 -11.867715 -0.003197 -1.480893 7.658923 -0.101801 0.007755 -0.126392 -0.000000 0.000000 0.000000 0.000000 0.000000 0.000000 0.000000 1.886124 5.527455 -2.115796 46.954017 51.419384 11.264245 0.138638 75.838483 -0.065181 -5.022540 10.613795 -0.489815 -0.058269 -0.639729 -0.000000 0.000000 0.000000 0.000000 0.000000 0.000000 0.000000 
-2.889384 16.655469 -2.083452 12.215454 69.498874 20.609935 -8.897057 1.943210 -2.378346 -2.244922 2.432204 -3.840882 -4.558679 2.299549 -1.461683 5.689410 -1.215971 -6.485934 -1.658269 -0.147936 0.315194 0.000000 0.000000 0.000000 -12.652719 17.333726 3.492040 -79.353289 32.293162 11.681879 -3.320343 -12.892468 -0.002615 -1.373283 7.024281 -0.086892 0.010022 -0.120435 -0.000000 0.000000 0.000000 0.000000 0.000000 0.000000 0.000000 2.303659 5.809369 -1.942056 48.786486 50.777694 12.489489 0.167208 75.543215 -0.062870 -4.979890 10.681295 -0.489010 -0.050624 -0.636496 -0.000000 0.000000 0.000000 0.000000 0.000000 0.000000 0.000000 
-2.784428 16.606261 -2.088670 13.033177 68.812496 21.128402 -9.314291 1.810657 -2.028492 -2.341167 2.336347 -3.827664 -4.620492 2.212189 -1.657760 5.810547 -0.999618 -6.319277 -1.736655 -0.155597 0.351737 0.000000 0.000000 0.000000 -12.401517 16.325609 3.543792 -79.109748 31.779393 13.261497 -3.283011 -14.041940 -0.002101 -1.255615 6.339468 -0.071983 0.012237 -0.114449 -0.000000 0.000000 0.000000 0.000000 0.000000 0.000000 0.000000 2.722160 6.098905 -1.763593 50.639624 50.082172 13.718854 0.192371 75.124831 -0.060428 -4.927395 10.751750 -0.487211 -0.043215 -0.632405 -0.000000 0.000000 0.000000 0.000000 0.000000 0.000000 0.000000 
-2.685013 16.554262 -2.094698 13.763759 68.127219 21.542966 -9.698301 1.675908 -1.624988 -2.431328 2.235803 -3.806521 -4.686141 2.120120 -1.873259 5.903839 -0.783568 -6.143438 -1.820991 -0.163745 0.389564 0.000000 0.000000 0.000000 -12.164938 15.245152 3.594989 -78.747139 31.233829 15.030518 -3.239920 -15.269921 -0.001628 -1.114063 5.627067 -0.056974 0.014428 -0.108448 0.000000 0.000000 0.000000 0.000000 0.000000 0.000000 0.000000 3.148502 6.388650 -1.584462 52.496639 49.350486 14.949816 0.214850 74.568688 -0.057994 -4.877140 10.828168 -0.485922 -0.036048 -0.627449 -0.000000 0.000000 0.000000 0.000000 0.000000 0.000000 0.000000 
-2.590893 16.500211 -2.101908 14.401075 67.437722 21.847464 -10.041860 1.541643 -1.169593 -2.513999 2.132210 -3.777122 -4.756074 2.024674 -2.104460 5.967811 -0.566177 -5.958963 -1.911616 -0.172389 0.428529 0.000000 0.000000 0.000000 -11.954462 14.110178 3.644486 -78.241591 30.635539 16.992670 -3.190255 -16.538016 -0.001182 -0.935930 4.916656 -0.042166 0.016494 -0.102457 0.000000 0.000000 0.000000 0.000000 0.000000 0.000000 0.000000 3.583116 6.679099 -1.407267 54.349354 48.583224 16.175941 0.235796 73.863932 -0.055648 -4.835271 10.912289 -0.485548 -0.029175 -0.621586 -0.000000 0.000000 0.000000 0.000000 0.000000 0.000000 0.000000 
-2.501607 16.444972 -2.110679 14.938682 66.738175 22.034283 -10.336927 1.411973 -0.665347 -2.587596 2.028606 -3.740989 -4.831103 1.928497 -2.353571 5.998899 -0.338477 -5.760208 -2.008333 -0.181594 0.470335 0.000000 0.000000 0.000000 -11.793556 12.909394 3.691870 -77.580689 29.992290 19.077081 -3.137320 -17.814810 -0.000766 -0.716213 4.240261 -0.028257 0.018236 -0.096549 0.000000 0.000000 0.000000 0.000000 0.000000 0.000000 0.000000 4.019729 6.976526 -1.233123 56.197183 47.763102 17.383818 0.256572 73.002341 -0.053418 -4.802798 11.004961 -0.486484 -0.022711 -0.614769 -0.000000 0.000000 0.000000 0.000000 0.000000 0.000000 0.000000 
